solid "bottom dovetail"
  facet normal 0 -1 5.96046447754e-08
    outer loop
      vertex 27.75 77.2920455933 141.29284668
      vertex 19.75 77.2920455933 141.29284668
      vertex 27.75 77.2920455933 127.328155518
    endloop
  endfacet
  facet normal 0 -1 5.96046447754e-08
    outer loop
      vertex 27.75 77.2920455933 127.328155518
      vertex 19.75 77.2920455933 141.29284668
      vertex 19.75 77.2920455933 127.328155518
    endloop
  endfacet
  facet normal 1 0 0
    outer loop
      vertex 27.75 77.2920455933 127.328155518
      vertex 27.75 81.6326370239 129.354232788
      vertex 27.75 77.2920455933 141.29284668
    endloop
  endfacet
  facet normal 1 0 0
    outer loop
      vertex 27.75 77.2920455933 141.29284668
      vertex 27.75 81.6326370239 129.354232788
      vertex 27.75 81.6351242065 139.26763916
    endloop
  endfacet
  facet normal 0 0.422965615988 -0.906145751476
    outer loop
      vertex 19.75 77.2920455933 127.328155518
      vertex 19.75 81.6326370239 129.354232788
      vertex 27.75 77.2920455933 127.328155518
    endloop
  endfacet
  facet normal 0 0.422965615988 -0.906145751476
    outer loop
      vertex 27.75 77.2920455933 127.328155518
      vertex 19.75 81.6326370239 129.354232788
      vertex 27.75 81.6326370239 129.354232788
    endloop
  endfacet
  facet normal -0 -0.000254424841842 -0.999999940395
    outer loop
      vertex 26.9500007629 83.1328048706 130.053863525
      vertex 26.9500007629 81.6328048706 130.054244995
      vertex 24.7999992371 83.1328048706 130.053863525
    endloop
  endfacet
  facet normal 0 -0.000254424841842 -0.999999940395
    outer loop
      vertex 24.7999992371 83.1328048706 130.053863525
      vertex 26.9500007629 81.6328048706 130.054244995
      vertex 20.4500007629 81.6328048706 130.054244995
    endloop
  endfacet
  facet normal -1.14808653962e-06 -0.000251095392741 -0.999999940395
    outer loop
      vertex 24.7999992371 83.1328048706 130.053863525
      vertex 20.4500007629 81.6328048706 130.054244995
      vertex 20.4500007629 86.1328048706 130.053100586
    endloop
  endfacet
  facet normal 0 -0.000249430653639 -0.999999940395
    outer loop
      vertex 20.4500007629 86.1328048706 130.053100586
      vertex 24.7999992371 86.1328048706 130.053100586
      vertex 24.7999992371 83.1328048706 130.053863525
    endloop
  endfacet
  facet normal -6.378260764e-07 0.000251002929872 0.999999940395
    outer loop
      vertex 20.4500007629 86.1349411011 138.566497803
      vertex 20.4500007629 81.6349411011 138.567626953
      vertex 24.7999992371 83.1349411011 138.567260742
    endloop
  endfacet
  facet normal 0 0.000249153235927 0.999999940395
    outer loop
      vertex 24.7999992371 83.1349411011 138.567260742
      vertex 20.4500007629 81.6349411011 138.567626953
      vertex 26.9500007629 81.6349411011 138.567626953
    endloop
  endfacet
  facet normal -0 0.000249153235927 0.999999940395
    outer loop
      vertex 24.7999992371 83.1349411011 138.567260742
      vertex 26.9500007629 81.6349411011 138.567626953
      vertex 26.9500007629 83.1349411011 138.567260742
    endloop
  endfacet
  facet normal 0 0.000251927762292 0.999999940395
    outer loop
      vertex 24.7999992371 83.1349411011 138.567260742
      vertex 24.7999992371 86.1349411011 138.566497803
      vertex 20.4500007629 86.1349411011 138.566497803
    endloop
  endfacet
  facet normal -1 0 0
    outer loop
      vertex 20.4500007629 81.6328048706 130.054244995
      vertex 20.4500007629 81.6349411011 138.567626953
      vertex 20.4500007629 86.1328048706 130.053100586
    endloop
  endfacet
  facet normal -1 0 0
    outer loop
      vertex 20.4500007629 86.1328048706 130.053100586
      vertex 20.4500007629 81.6349411011 138.567626953
      vertex 20.4500007629 86.1349411011 138.566497803
    endloop
  endfacet
  facet normal -9.74828708422e-06 0.999999940395 -0.000251000194112
    outer loop
      vertex 26.9500007629 81.6349411011 138.567626953
      vertex 27.75 81.6326370239 129.354232788
      vertex 26.9500007629 81.6328048706 130.054244995
    endloop
  endfacet
  facet normal 0 1 -0.00023985937878
    outer loop
      vertex 26.9500007629 81.6328048706 130.054244995
      vertex 27.75 81.6326370239 129.354232788
      vertex 19.75 81.6326370239 129.354232788
    endloop
  endfacet
  facet normal 0 1 -0.00023985937878
    outer loop
      vertex 26.9500007629 81.6328048706 130.054244995
      vertex 19.75 81.6326370239 129.354232788
      vertex 20.4500007629 81.6328048706 130.054244995
    endloop
  endfacet
  facet normal 1.11408735393e-05 0.999999940395 -0.000251000194112
    outer loop
      vertex 20.4500007629 81.6328048706 130.054244995
      vertex 19.75 81.6326370239 129.354232788
      vertex 20.4500007629 81.6349411011 138.567626953
    endloop
  endfacet
  facet normal 1.06959141704e-05 0.999999940395 -0.000250966404565
    outer loop
      vertex 20.4500007629 81.6349411011 138.567626953
      vertex 19.75 81.6326370239 129.354232788
      vertex 19.75 81.6351242065 139.26763916
    endloop
  endfacet
  facet normal 0 0.999999940395 -0.000261662236881
    outer loop
      vertex 20.4500007629 81.6349411011 138.567626953
      vertex 19.75 81.6351242065 139.26763916
      vertex 26.9500007629 81.6349411011 138.567626953
    endloop
  endfacet
  facet normal -4.65248583714e-21 0.999999940395 -0.000261662236881
    outer loop
      vertex 26.9500007629 81.6349411011 138.567626953
      vertex 19.75 81.6351242065 139.26763916
      vertex 27.75 81.6351242065 139.26763916
    endloop
  endfacet
  facet normal -9.35894604481e-06 0.999999940395 -0.000250966404565
    outer loop
      vertex 26.9500007629 81.6349411011 138.567626953
      vertex 27.75 81.6351242065 139.26763916
      vertex 27.75 81.6326370239 129.354232788
    endloop
  endfacet
  facet normal 1 0 0
    outer loop
      vertex 24.7999992371 83.1349411011 138.567260742
      vertex 24.7999992371 83.1328048706 130.053863525
      vertex 24.7999992371 86.1349411011 138.566497803
    endloop
  endfacet
  facet normal 1 0 0
    outer loop
      vertex 24.7999992371 86.1349411011 138.566497803
      vertex 24.7999992371 83.1328048706 130.053863525
      vertex 24.7999992371 86.1328048706 130.053100586
    endloop
  endfacet
  facet normal 0 0.999999940395 -0.000250977260293
    outer loop
      vertex 24.7999992371 86.1328048706 130.053100586
      vertex 20.4500007629 86.1328048706 130.053100586
      vertex 24.7999992371 86.1349411011 138.566497803
    endloop
  endfacet
  facet normal 0 0.999999940395 -0.000250977260293
    outer loop
      vertex 24.7999992371 86.1349411011 138.566497803
      vertex 20.4500007629 86.1328048706 130.053100586
      vertex 20.4500007629 86.1349411011 138.566497803
    endloop
  endfacet
  facet normal 0 0.999999940395 -0.000251001503784
    outer loop
      vertex 24.7999992371 83.1349411011 138.567260742
      vertex 26.9500007629 83.1349411011 138.567260742
      vertex 24.7999992371 83.1328048706 130.053863525
    endloop
  endfacet
  facet normal 0 0.999999940395 -0.000251001503784
    outer loop
      vertex 24.7999992371 83.1328048706 130.053863525
      vertex 26.9500007629 83.1349411011 138.567260742
      vertex 26.9500007629 83.1328048706 130.053863525
    endloop
  endfacet
  facet normal -1 0 0
    outer loop
      vertex 19.75 77.2920455933 127.328155518
      vertex 19.75 77.2920455933 141.29284668
      vertex 19.75 81.6326370239 129.354232788
    endloop
  endfacet
  facet normal -1 0 0
    outer loop
      vertex 19.75 81.6326370239 129.354232788
      vertex 19.75 77.2920455933 141.29284668
      vertex 19.75 81.6351242065 139.26763916
    endloop
  endfacet
  facet normal 1 0 0
    outer loop
      vertex 26.9500007629 81.6349411011 138.567626953
      vertex 26.9500007629 81.6328048706 130.054244995
      vertex 26.9500007629 83.1349411011 138.567260742
    endloop
  endfacet
  facet normal 1 0 0
    outer loop
      vertex 26.9500007629 83.1349411011 138.567260742
      vertex 26.9500007629 81.6328048706 130.054244995
      vertex 26.9500007629 83.1328048706 130.053863525
    endloop
  endfacet
  facet normal 0 0.422617703676 0.906308054924
    outer loop
      vertex 27.75 77.2920455933 141.29284668
      vertex 27.75 81.6351242065 139.26763916
      vertex 19.75 77.2920455933 141.29284668
    endloop
  endfacet
  facet normal 0 0.422617703676 0.906308054924
    outer loop
      vertex 19.75 77.2920455933 141.29284668
      vertex 27.75 81.6351242065 139.26763916
      vertex 19.75 81.6351242065 139.26763916
    endloop
  endfacet
endsolid "bottom dovetail"
