solid "alignment bar"
  facet normal -1.19213311223e-07 1 -2.99282577887e-11
    outer loop
      vertex -34.9988098145 1.24999344349 -4.72892665863
      vertex -35.0011825562 1.24999344349 4.71134471893
      vertex 35.0011863708 1.25000178814 -4.71133565903
    endloop
  endfacet
  facet normal -1.19213311223e-07 1 -2.99414833205e-11
    outer loop
      vertex 35.0011863708 1.25000178814 -4.71133565903
      vertex -35.0011825562 1.24999344349 4.71134471893
      vertex 34.9988174438 1.25000178814 4.72891902924
    endloop
  endfacet
  facet normal 0.000251301680692 0 -0.999999940395
    outer loop
      vertex -34.9988098145 1.24999344349 -4.72892665863
      vertex 35.0011863708 1.25000178814 -4.71133565903
      vertex -34.9988098145 -1.2500064373 -4.72892665863
    endloop
  endfacet
  facet normal 0.000251301680692 1.51885094619e-18 -0.999999940395
    outer loop
      vertex -34.9988098145 -1.2500064373 -4.72892665863
      vertex 35.0011863708 1.25000178814 -4.71133565903
      vertex 35.0011863708 -1.24999809265 -4.71133565903
    endloop
  endfacet
  facet normal 1.19213311223e-07 -1 2.99282577887e-11
    outer loop
      vertex -35.0011825562 -1.2500064373 4.71134471893
      vertex -34.9988098145 -1.2500064373 -4.72892665863
      vertex 34.9988174438 -1.24999809265 4.72891902924
    endloop
  endfacet
  facet normal 1.19213311223e-07 -1 2.99414833205e-11
    outer loop
      vertex 34.9988174438 -1.24999809265 4.72891902924
      vertex -34.9988098145 -1.2500064373 -4.72892665863
      vertex 35.0011863708 -1.24999809265 -4.71133565903
    endloop
  endfacet
  facet normal -0.000251063233009 0 0.999999940395
    outer loop
      vertex -35.0011825562 -1.2500064373 4.71134471893
      vertex 34.9988174438 -1.24999809265 4.72891902924
      vertex -35.0011825562 1.24999344349 4.71134471893
    endloop
  endfacet
  facet normal -0.000251063233009 0 0.999999940395
    outer loop
      vertex -35.0011825562 1.24999344349 4.71134471893
      vertex 34.9988174438 -1.24999809265 4.72891902924
      vertex 34.9988174438 1.25000178814 4.72891902924
    endloop
  endfacet
  facet normal -0.999999940395 -0 -0.000251047953498
    outer loop
      vertex -35.0011825562 1.24999344349 4.71134471893
      vertex -34.9988098145 1.24999344349 -4.72892665863
      vertex -35.0011825562 -1.2500064373 4.71134471893
    endloop
  endfacet
  facet normal -0.999999940395 0 -0.000251047953498
    outer loop
      vertex -35.0011825562 -1.2500064373 4.71134471893
      vertex -34.9988098145 1.24999344349 -4.72892665863
      vertex -34.9988098145 -1.2500064373 -4.72892665863
    endloop
  endfacet
  facet normal 0.999999940395 -0 0.000251158868195
    outer loop
      vertex 34.9988174438 -1.24999809265 4.72891902924
      vertex 35.0011863708 -1.24999809265 -4.71133565903
      vertex 34.9988174438 1.25000178814 4.72891902924
    endloop
  endfacet
  facet normal 0.999999940395 -1.05879667706e-19 0.000251158868195
    outer loop
      vertex 34.9988174438 1.25000178814 4.72891902924
      vertex 35.0011863708 -1.24999809265 -4.71133565903
      vertex 35.0011863708 1.25000178814 -4.71133565903
    endloop
  endfacet
endsolid "alignment bar"
